<svg width="31" height="28" viewBox="0 0 31 28" fill="none" xmlns="http://www.w3.org/2000/svg">
<path d="M1.10714 4.98214H29.8929C30.5043 4.98214 31 4.48649 31 3.875V1.10714C31 0.495654 30.5043 0 29.8929 0H1.10714C0.495654 0 0 0.495654 0 1.10714V3.875C0 4.48649 0.495654 4.98214 1.10714 4.98214ZM1.10714 16.0536H29.8929C30.5043 16.0536 31 15.5579 31 14.9464V12.1786C31 11.5671 30.5043 11.0714 29.8929 11.0714H1.10714C0.495654 11.0714 0 11.5671 0 12.1786V14.9464C0 15.5579 0.495654 16.0536 1.10714 16.0536ZM1.10714 27.125H29.8929C30.5043 27.125 31 26.6293 31 26.0179V23.25C31 22.6385 30.5043 22.1429 29.8929 22.1429H1.10714C0.495654 22.1429 0 22.6385 0 23.25V26.0179C0 26.6293 0.495654 27.125 1.10714 27.125Z" fill="#17636b"/>
</svg>
