<svg width="64" height="52" viewBox="0 0 64 52" fill="none" xmlns="http://www.w3.org/2000/svg">
<path d="M27.8903 51.1423L21.7908 49.3724C21.1508 49.1924 20.7909 48.5225 20.9709 47.8825L34.6198 0.866215C34.7998 0.226265 35.4697 -0.133707 36.1097 0.046279L42.2092 1.81614C42.8492 1.99613 43.2091 2.66607 43.0291 3.30602L29.3802 50.3224C29.1902 50.9623 28.5303 51.3323 27.8903 51.1423ZM16.4912 39.9232L20.8409 35.2835C21.3008 34.7936 21.2708 34.0136 20.7609 33.5637L11.7016 25.5943L20.7609 17.6249C21.2708 17.1749 21.3108 16.395 20.8409 15.905L16.4912 11.2654C16.0412 10.7854 15.2813 10.7554 14.7913 11.2154L0.38247 24.7144C-0.12749 25.1843 -0.12749 25.9943 0.38247 26.4642L14.7913 39.9732C15.2813 40.4331 16.0412 40.4131 16.4912 39.9232ZM49.2087 39.9832L63.6175 26.4742C64.1275 26.0043 64.1275 25.1943 63.6175 24.7244L49.2087 11.2054C48.7287 10.7554 47.9688 10.7754 47.5088 11.2554L43.1591 15.895C42.6992 16.385 42.7292 17.1649 43.2391 17.6149L52.2984 25.5943L43.2391 33.5637C42.7292 34.0136 42.6892 34.7936 43.1591 35.2835L47.5088 39.9232C47.9588 40.4131 48.7187 40.4331 49.2087 39.9832Z" fill="#17636b"/>
</svg>
