<svg width="38" height="33" viewBox="0 0 38 33" fill="none" xmlns="http://www.w3.org/2000/svg">
<path d="M33.7188 0.762695H3.48816C1.56168 0.762695 0 2.5273 0 4.70411V28.3526C0 30.5294 1.56168 32.294 3.48816 32.294H33.7188C35.6453 32.294 37.207 30.5294 37.207 28.3526V4.70411C37.207 2.5273 35.6453 0.762695 33.7188 0.762695ZM33.7188 4.70411V8.05473C32.0894 9.55403 29.4918 11.8854 23.9384 16.7989C22.7146 17.8867 20.2903 20.4999 18.6035 20.4695C16.917 20.5003 14.4919 17.8863 13.2686 16.7989C7.71609 11.8861 5.11778 9.55427 3.48816 8.05473V4.70411H33.7188ZM3.48816 28.3526V13.1123C5.15331 14.611 7.51472 16.7139 11.114 19.8986C12.7023 21.3114 15.4839 24.4301 18.6035 24.4111C21.7077 24.4301 24.4541 21.3566 26.0924 19.8993C29.6915 16.7147 32.0536 14.6111 33.7188 13.1124V28.3526H3.48816Z" fill="black"/>
</svg>
