<svg width="25" height="28" viewBox="0 0 25 28" fill="none" xmlns="http://www.w3.org/2000/svg">
<g clip-path="url(#clip0_21_400)">
<path d="M25 14.147C25 6.75613 19.4036 0.764648 12.5 0.764648C5.59644 0.764648 0 6.75613 0 14.147C0 20.8264 4.57104 26.3628 10.5469 27.3668V18.0153H7.37305V14.147H10.5469V11.1987C10.5469 7.84475 12.4131 5.99213 15.2683 5.99213C16.6355 5.99213 18.0664 6.2535 18.0664 6.2535V9.54682H16.4902C14.9375 9.54682 14.4531 10.5785 14.4531 11.6378V14.147H17.9199L17.3657 18.0153H14.4531V27.3668C20.429 26.3628 25 20.8264 25 14.147Z" fill="#1877F2"/>
<path d="M17.3657 18.0154L17.9199 14.1471H14.4531V11.6379C14.4531 10.5796 14.9375 9.54688 16.4902 9.54688H18.0664V6.25356C18.0664 6.25356 16.636 5.99219 15.2683 5.99219C12.4131 5.99219 10.5469 7.84481 10.5469 11.1988V14.1471H7.37305V18.0154H10.5469V27.3668C11.8411 27.5836 13.1589 27.5836 14.4531 27.3668V18.0154H17.3657Z" fill="white"/>
</g>
<defs>
<clipPath id="clip0_21_400">
<rect width="25" height="26.7647" fill="white" transform="translate(0 0.764648)"/>
</clipPath>
</defs>
</svg>
