<svg width="30" height="33" viewBox="0 0 30 33" fill="none" xmlns="http://www.w3.org/2000/svg">
<path d="M29.308 13.4232L16.0097 0.628766C15.5774 0.212827 15.0081 -0.0122731 14.4208 0.000516632C13.8334 0.0133064 13.2736 0.262996 12.8582 0.697395L0.627656 13.4879L0 14.1442V33H11.7857V21.235H18.2143V33H30V14.0891L29.308 13.4232ZM14.4668 2.24099C14.4857 2.24099 14.4741 2.24526 14.466 2.25359C14.4576 2.24526 14.4479 2.24099 14.4668 2.24099ZM27.8571 30.7591H20.3571V21.235C20.3571 20.6407 20.1314 20.0707 19.7295 19.6504C19.3276 19.2302 18.7826 18.9941 18.2143 18.9941H11.7857C11.2174 18.9941 10.6723 19.2302 10.2705 19.6504C9.86862 20.0707 9.64286 20.6407 9.64286 21.235V30.7591H2.14286V15.0724L14.4668 2.28195L14.4684 2.2795L27.8571 15.0724V30.7591Z" fill="black"/>
</svg>
