<svg width="25" height="28" viewBox="0 0 25 28" fill="none" xmlns="http://www.w3.org/2000/svg">
<g clip-path="url(#clip0_21_398)">
<path d="M12.5 3.10396C15.8398 3.10396 16.2354 3.11964 17.5488 3.18237C18.7695 3.23988 19.4287 3.45943 19.8682 3.64239C20.4492 3.88286 20.8691 4.17559 21.3037 4.64084C21.7432 5.11131 22.0117 5.55565 22.2363 6.17772C22.4072 6.64819 22.6123 7.35913 22.666 8.66077C22.7246 10.0722 22.7393 10.4956 22.7393 14.066C22.7393 17.6416 22.7246 18.065 22.666 19.4712C22.6123 20.7781 22.4072 21.4838 22.2363 21.9543C22.0117 22.5763 21.7383 23.0259 21.3037 23.4911C20.8643 23.9616 20.4492 24.2491 19.8682 24.4896C19.4287 24.6726 18.7646 24.8921 17.5488 24.9496C16.2305 25.0123 15.835 25.028 12.5 25.028C9.16016 25.028 8.76465 25.0123 7.45117 24.9496C6.23047 24.8921 5.57129 24.6726 5.13184 24.4896C4.55078 24.2491 4.13086 23.9564 3.69629 23.4911C3.25684 23.0207 2.98828 22.5763 2.76367 21.9543C2.59277 21.4838 2.3877 20.7729 2.33398 19.4712C2.27539 18.0598 2.26074 17.6364 2.26074 14.066C2.26074 10.4904 2.27539 10.067 2.33398 8.66077C2.3877 7.3539 2.59277 6.64819 2.76367 6.17772C2.98828 5.55565 3.26172 5.10609 3.69629 4.64084C4.13574 4.17037 4.55078 3.88286 5.13184 3.64239C5.57129 3.45943 6.23535 3.23988 7.45117 3.18237C8.76465 3.11964 9.16016 3.10396 12.5 3.10396ZM12.5 0.694092C9.10645 0.694092 8.68164 0.709774 7.34863 0.772504C6.02051 0.835234 5.10742 1.06524 4.31641 1.39457C3.49121 1.73959 2.79297 2.19438 2.09961 2.94191C1.40137 3.68421 0.976562 4.43174 0.654297 5.30996C0.34668 6.16204 0.131836 7.13435 0.0732422 8.55622C0.0146484 9.98855 0 10.4433 0 14.0764C0 17.7095 0.0146484 18.1643 0.0732422 19.5914C0.131836 21.0133 0.34668 21.9909 0.654297 22.8377C0.976562 23.7211 1.40137 24.4687 2.09961 25.211C2.79297 25.9533 3.49121 26.4133 4.31152 26.7531C5.10742 27.0824 6.01562 27.3124 7.34375 27.3752C8.67676 27.4379 9.10156 27.4536 12.4951 27.4536C15.8887 27.4536 16.3135 27.4379 17.6465 27.3752C18.9746 27.3124 19.8877 27.0824 20.6787 26.7531C21.499 26.4133 22.1973 25.9533 22.8906 25.211C23.584 24.4687 24.0137 23.7212 24.3311 22.8429C24.6387 21.9909 24.8535 21.0185 24.9121 19.5967C24.9707 18.1696 24.9854 17.7148 24.9854 14.0817C24.9854 10.4486 24.9707 9.99378 24.9121 8.56668C24.8535 7.1448 24.6387 6.16727 24.3311 5.32041C24.0234 4.43174 23.5986 3.68421 22.9004 2.94191C22.207 2.19961 21.5088 1.73959 20.6885 1.3998C19.8926 1.07047 18.9844 0.840461 17.6562 0.777732C16.3184 0.709774 15.8936 0.694092 12.5 0.694092Z" fill="#000100"/>
<path d="M12.5 7.20227C8.95508 7.20227 6.0791 10.2813 6.0791 14.0764C6.0791 17.8716 8.95508 20.9505 12.5 20.9505C16.0449 20.9505 18.9209 17.8716 18.9209 14.0764C18.9209 10.2813 16.0449 7.20227 12.5 7.20227ZM12.5 18.5354C10.2002 18.5354 8.33496 16.5386 8.33496 14.0764C8.33496 11.6143 10.2002 9.61737 12.5 9.61737C14.7998 9.61737 16.665 11.6143 16.665 14.0764C16.665 16.5386 14.7998 18.5354 12.5 18.5354Z" fill="#000100"/>
<path d="M20.6738 6.93052C20.6738 7.8192 20 8.53536 19.1748 8.53536C18.3447 8.53536 17.6758 7.81397 17.6758 6.93052C17.6758 6.04185 18.3496 5.32568 19.1748 5.32568C20 5.32568 20.6738 6.04708 20.6738 6.93052Z" fill="#000100"/>
</g>
<defs>
<clipPath id="clip0_21_398">
<rect width="25" height="26.7647" fill="white" transform="translate(0 0.694092)"/>
</clipPath>
</defs>
</svg>
