<svg width="82" height="82" viewBox="0 0 82 82" fill="none" xmlns="http://www.w3.org/2000/svg">
<path d="M33.8674 61.1263H47.6344C48.0826 57.0444 50.1643 53.6757 53.5433 49.9979C53.927 49.5836 56.3687 47.0537 56.6573 46.6937C59.0558 43.6973 60.5592 40.0843 60.9943 36.2709C61.4294 32.4575 60.7786 28.5988 59.1168 25.139C57.455 21.6793 54.8498 18.7593 51.6012 16.7153C48.3526 14.6713 44.5927 13.5864 40.7546 13.5855C36.9164 13.5847 33.1561 14.668 29.9066 16.7106C26.6571 18.7533 24.0507 21.6721 22.3874 25.1312C20.7241 28.5902 20.0717 32.4487 20.5051 36.2623C20.9386 40.0759 22.4405 43.6895 24.8377 46.6869C25.1297 47.0503 27.5782 49.5836 27.9551 49.9945C31.3374 53.6757 33.4191 57.0444 33.8674 61.1263ZM47.5427 67.9181H33.9591V71.314H47.5427V67.9181ZM19.5401 50.9386C16.3418 46.9426 14.3374 42.1244 13.7577 37.039C13.1781 31.9537 14.0468 26.808 16.2639 22.1948C18.4809 17.5816 21.956 13.6885 26.2889 10.964C30.6218 8.23948 35.6363 6.79441 40.7546 6.79523C45.8729 6.79605 50.8868 8.24272 55.2189 10.9686C59.5509 13.6945 63.0248 17.5887 65.2403 22.2026C67.4559 26.8166 68.323 31.9625 67.7417 37.0477C67.1604 42.1329 65.1545 46.9504 61.9549 50.9454C59.8495 53.567 54.3345 57.7304 54.3345 62.8243V71.314C54.3345 73.1153 53.6189 74.8428 52.3452 76.1166C51.0715 77.3903 49.344 78.1058 47.5427 78.1058H33.9591C32.1578 78.1058 30.4303 77.3903 29.1565 76.1166C27.8828 74.8428 27.1673 73.1153 27.1673 71.314V62.8243C27.1673 57.7304 21.6489 53.567 19.5401 50.9386ZM44.1468 33.9727H52.6366L37.355 54.3481V40.7645H28.8652L44.1468 20.3754V33.976V33.9727Z" fill="#17636b"/>
</svg>
