<svg width="25" height="28" viewBox="0 0 25 28" fill="none" xmlns="http://www.w3.org/2000/svg">
<g clip-path="url(#clip0_21_397)">
<path d="M23.1545 0.764648H1.84549C1.35603 0.764648 0.886626 0.972808 0.540531 1.34333C0.194435 1.71386 0 2.2164 0 2.7404V25.5536C0 26.0776 0.194435 26.5801 0.540531 26.9507C0.886626 27.3212 1.35603 27.5294 1.84549 27.5294H23.1545C23.644 27.5294 24.1134 27.3212 24.4595 26.9507C24.8056 26.5801 25 26.0776 25 25.5536V2.7404C25 2.2164 24.8056 1.71386 24.4595 1.34333C24.1134 0.972808 23.644 0.764648 23.1545 0.764648ZM7.45139 23.5648H3.69271V10.7828H7.45139V23.5648ZM5.56944 9.01152C5.14309 9.00895 4.72699 8.87123 4.37368 8.61573C4.02037 8.36023 3.74567 7.9984 3.58425 7.57592C3.42283 7.15344 3.38192 6.68923 3.4667 6.24188C3.55147 5.79454 3.75813 5.3841 4.06058 5.06237C4.36303 4.74064 4.74772 4.52204 5.16611 4.43416C5.5845 4.34627 6.01783 4.39304 6.41141 4.56857C6.80499 4.74409 7.14119 5.0405 7.37757 5.42038C7.61395 5.80027 7.73992 6.24661 7.73958 6.70307C7.74361 7.00867 7.69012 7.31201 7.5823 7.59501C7.47449 7.878 7.31456 8.13487 7.11205 8.35029C6.90954 8.56571 6.66859 8.73527 6.40357 8.84887C6.13854 8.96248 5.85486 9.01779 5.56944 9.01152ZM21.3056 23.576H17.5486V16.593C17.5486 14.5336 16.7309 13.8979 15.6753 13.8979C14.5608 13.8979 13.467 14.7975 13.467 16.645V23.576H9.70833V10.7921H13.3229V12.5634H13.3715C13.7344 11.7772 15.0052 10.4334 16.9444 10.4334C19.0417 10.4334 21.3073 11.7661 21.3073 15.6692L21.3056 23.576Z" fill="#0A66C2"/>
</g>
<defs>
<clipPath id="clip0_21_397">
<rect width="25" height="26.7647" fill="white" transform="translate(0 0.764648)"/>
</clipPath>
</defs>
</svg>
