<svg width="64" height="49" viewBox="0 0 64 49" fill="none" xmlns="http://www.w3.org/2000/svg">
<path d="M56.7164 0.797933C56.0322 0.355273 55.2497 0.087474 54.4377 0.0180742C53.6257 -0.0513257 52.8091 0.0797994 52.0597 0.399923L27.5025 10.0716C26.9211 10.3082 26.2993 10.4298 25.6716 10.4298H9.95025C8.63076 10.4298 7.36532 10.9539 6.4323 11.887C5.49929 12.82 4.97512 14.0854 4.97512 15.4049V15.8029H0V27.7432H4.97512V28.2606C5.0063 29.5593 5.5442 30.7943 6.47386 31.7016C7.40351 32.609 8.65119 33.1167 9.95025 33.1163L15.9204 45.7731C16.3247 46.6254 16.9611 47.3464 17.7567 47.8533C18.5522 48.3602 19.4746 48.6324 20.4179 48.6387H22.9254C24.2379 48.6282 25.4932 48.0994 26.4176 47.1676C27.342 46.2357 27.8607 44.9762 27.8607 43.6636V33.594L52.0597 43.2656C52.6549 43.5025 53.2897 43.624 53.9303 43.6238C54.9242 43.6078 55.8921 43.3036 56.7164 42.7482C57.371 42.3062 57.911 41.7147 58.2917 41.0225C58.6723 40.3304 58.8827 39.5576 58.9055 38.7681V4.89744C58.9018 4.08755 58.7005 3.2908 58.319 2.57637C57.9375 1.86195 57.3874 1.25147 56.7164 0.797933ZM22.8856 15.4049V28.2606H9.95025V15.4049H22.8856ZM22.8856 43.6636H20.3781L15.4826 33.1163H22.8856V43.6636ZM29.3333 28.8576C28.8608 28.6161 28.368 28.4164 27.8607 28.2606V15.1263C28.3632 15.0226 28.8558 14.8761 29.3333 14.6885L53.9303 4.89744V38.6487L29.3333 28.8576ZM59.0249 16.7979V26.7482C60.3444 26.7482 61.6098 26.224 62.5428 25.291C63.4758 24.358 64 23.0925 64 21.7731C64 20.4536 63.4758 19.1881 62.5428 18.2551C61.6098 17.3221 60.3444 16.7979 59.0249 16.7979Z" fill="#17636b"/>
</svg>
