<svg width="31" height="41" viewBox="0 0 31 41" fill="none" xmlns="http://www.w3.org/2000/svg">
<path d="M15.2592 24.2233C11.7933 24.2233 8.96204 21.0425 8.96204 17.1079C8.96204 13.1734 11.7933 10.011 15.2592 10.011C18.725 10.011 21.5562 13.1918 21.5562 17.1263C21.5562 21.0609 18.725 24.2233 15.2592 24.2233ZM15.2592 12.7689C13.1439 12.7689 11.4028 14.7178 11.4028 17.1263C11.4028 19.5349 13.1276 21.4838 15.2592 21.4838C17.3907 21.4838 19.1155 19.5349 19.1155 17.1263C19.1155 14.7178 17.3745 12.7689 15.2592 12.7689Z" fill="#292D32"/>
<path d="M15.2572 40.0169C12.849 40.0169 10.4246 38.9873 8.53707 36.9465C3.73698 31.7249 -1.56753 23.3961 0.433865 13.4861C2.24 4.49538 9.18793 0.468872 15.2572 0.468872H15.2735C21.3428 0.468872 28.2907 4.49538 30.0968 13.5045C32.082 23.4144 26.7774 31.7249 21.9774 36.9465C20.0899 38.9873 17.6654 40.0169 15.2572 40.0169ZM15.2572 3.22675C10.5222 3.22675 4.43666 6.07656 2.82578 14.0928C1.06845 22.7526 5.88482 30.2172 10.2456 34.9424C13.0606 38.0128 17.4701 38.0128 20.2851 34.9424C24.6296 30.2172 29.446 22.7526 27.7212 14.0928C26.094 6.07656 19.9922 3.22675 15.2572 3.22675Z" fill="#292D32"/>
</svg>
