<svg width="64" height="64" viewBox="0 0 64 64" fill="none" xmlns="http://www.w3.org/2000/svg">
<path d="M4.83878 41.6H19.7501C19.3904 38.5675 19.2 35.3423 19.2 32C19.2 28.6577 19.3904 25.4325 19.7501 22.4H4.83878C3.77748 25.4027 3.2 28.6339 3.2 32C3.2 35.3661 3.77748 38.5973 4.83878 41.6ZM6.19366 44.8C10.0029 52.4651 17.1266 58.1924 25.6896 60.1065C23.1965 56.7129 21.2869 51.3188 20.204 44.8H6.19366ZM59.1612 41.6C60.2225 38.5973 60.8 35.3661 60.8 32C60.8 28.6339 60.2225 25.4027 59.1612 22.4H44.2499C44.6096 25.4325 44.8 28.6577 44.8 32C44.8 35.3423 44.6096 38.5675 44.2499 41.6H59.1612ZM57.8063 44.8H43.796C42.7131 51.3188 40.8035 56.7129 38.3104 60.1065C46.8734 58.1924 53.9971 52.4651 57.8063 44.8ZM22.9901 41.6H41.0099C41.3889 38.5996 41.6 35.369 41.6 32C41.6 28.631 41.3889 25.4004 41.0099 22.4H22.9901C22.6111 25.4004 22.4 28.631 22.4 32C22.4 35.369 22.6111 38.5996 22.9901 41.6ZM23.4719 44.8C25.1429 54.2971 28.5378 60.8 32 60.8C35.4622 60.8 38.8571 54.2971 40.5281 44.8H23.4719ZM6.19366 19.2H20.204C21.2869 12.6812 23.1965 7.28712 25.6896 3.89347C17.1266 5.80762 10.0029 11.5349 6.19366 19.2ZM57.8063 19.2C53.9971 11.5349 46.8734 5.80762 38.3104 3.89347C40.8035 7.28712 42.7131 12.6812 43.796 19.2H57.8063ZM23.4719 19.2H40.5281C38.8571 9.70295 35.4622 3.2 32 3.2C28.5378 3.2 25.1429 9.70295 23.4719 19.2ZM32 64C14.3269 64 0 49.6731 0 32C0 14.3269 14.3269 0 32 0C49.6731 0 64 14.3269 64 32C64 49.6731 49.6731 64 32 64Z" fill="#17636b"/>
</svg>
